<?xml version="1.0" standalone="no"?>
<!DOCTYPE svg PUBLIC "-//W3C//DTD SVG 20010904//EN"
 "http://www.w3.org/TR/2001/REC-SVG-20010904/DTD/svg10.dtd">
<svg version="1.0" xmlns="http://www.w3.org/2000/svg"
 width="300.000000pt" height="300.000000pt" viewBox="0 0 300.000000 300.000000"
 preserveAspectRatio="xMidYMid meet">
<metadata>
Created by potrace 1.11, written by Peter Selinger 2001-2013
</metadata>
<g transform="translate(0.000000,300.000000) scale(0.100000,-0.100000)"
fill="#000000" stroke="none">
<path d="M2580 2985 c0 -8 -4 -15 -9 -15 -6 0 -6 -12 0 -32 12 -43 12 -88 -1
-88 -5 0 -10 7 -10 16 0 20 -31 11 -88 -26 -34 -23 -59 -30 -120 -34 -216 -17
-311 -28 -347 -41 -22 -8 -47 -14 -56 -15 -20 0 -99 -67 -99 -84 0 -13 -74
-96 -85 -96 -4 0 -28 -17 -55 -37 -80 -63 -110 -131 -211 -483 -7 -25 -12 -50
-11 -56 1 -6 -5 -24 -13 -40 -8 -16 -15 -39 -15 -51 0 -12 -3 -23 -7 -25 -5
-2 -16 -19 -26 -38 -10 -19 -25 -48 -33 -63 -20 -36 -11 -105 17 -140 10 -14
19 -28 19 -32 0 -8 37 -93 52 -120 18 -32 18 -66 0 -72 -9 -4 -30 -16 -47 -28
-16 -13 -52 -34 -80 -47 -111 -55 -169 -91 -187 -114 -11 -13 -24 -24 -29 -24
-6 0 -32 23 -58 52 l-48 52 -72 0 c-88 0 -111 -15 -92 -63 16 -36 63 -60 129
-65 58 -4 89 -21 95 -53 2 -12 0 -20 -4 -17 -5 3 -9 -1 -9 -8 0 -9 -26 -17
-84 -25 -92 -13 -136 -38 -136 -79 0 -24 17 -34 60 -34 15 0 43 -6 61 -14 19
-7 94 -28 167 -46 72 -18 132 -36 132 -41 0 -18 -39 -27 -140 -31 -80 -3 -112
-9 -133 -23 -20 -13 -59 -21 -129 -26 -55 -4 -109 -14 -121 -22 -28 -17 -115
-47 -139 -47 -10 0 -24 11 -30 26 -10 20 -9 30 5 54 10 16 18 45 20 66 2 33 0
37 -28 40 -17 2 -37 -3 -46 -12 -10 -9 -31 -14 -51 -12 -31 3 -33 5 -31 40 3
47 100 178 280 377 35 38 43 55 49 101 12 97 11 105 -12 108 -15 2 -51 -27
-134 -110 -62 -62 -118 -120 -124 -128 -29 -36 -54 -77 -61 -100 -4 -14 -14
-33 -22 -42 -13 -14 -14 -42 -10 -163 6 -144 6 -145 -18 -161 -23 -15 -36 -45
-41 -94 -25 -251 -23 -299 18 -405 13 -35 66 -95 84 -95 25 0 46 41 81 158 9
29 29 67 44 83 25 27 34 30 71 26 24 -2 48 -5 53 -7 6 -1 25 -2 44 -1 25 1 32
5 27 16 -3 9 4 21 20 31 22 15 33 16 97 4 40 -7 88 -16 107 -21 19 -5 47 -9
63 -9 27 0 27 1 12 24 -16 24 -83 49 -135 50 -21 1 -25 6 -25 31 0 24 4 29 20
27 11 -2 27 -2 35 -2 175 16 243 14 290 -10 35 -18 45 -19 84 -8 37 10 51 9
90 -6 51 -19 57 -35 25 -65 -25 -23 -82 -36 -159 -36 -126 -1 -190 -6 -190
-14 0 -5 14 -11 30 -15 17 -3 32 -6 35 -7 2 0 26 -9 52 -19 52 -19 65 -36 36
-47 -40 -14 -133 -77 -133 -89 0 -8 -4 -14 -10 -14 -5 0 -7 -6 -4 -13 3 -8 -2
-20 -11 -27 -8 -7 -15 -21 -15 -31 0 -12 -15 -26 -39 -39 -76 -38 -67 -67 37
-117 42 -20 79 -40 80 -44 2 -5 413 -9 913 -9 l909 0 0 1500 0 1500 -210 0
c-180 0 -210 -2 -210 -15z m-319 -696 c23 -12 16 -29 -12 -29 -25 0 -79 -52
-79 -76 0 -10 -10 -28 -21 -40 -13 -14 -23 -41 -26 -69 -3 -25 -10 -48 -15
-51 -11 -7 -65 14 -88 34 -8 7 -26 21 -39 31 -23 17 -24 21 -13 58 14 48 74
119 116 138 37 16 149 19 177 4z m-196 -460 c49 -20 72 -35 69 -43 -3 -8 1
-16 8 -18 17 -7 61 10 54 20 -3 5 18 5 47 0 29 -5 121 -9 205 -9 87 0 165 -5
180 -11 15 -6 50 -16 77 -23 28 -7 49 -17 48 -23 -2 -7 15 -21 37 -32 22 -11
40 -27 40 -35 0 -8 22 -29 50 -46 55 -34 65 -53 52 -101 -5 -18 -7 -40 -5 -48
3 -10 2 -11 -4 -4 -9 13 -73 -10 -73 -26 0 -5 -10 -19 -22 -30 -13 -12 -24
-25 -24 -31 -1 -5 -2 -13 -3 -18 0 -5 -18 -11 -39 -14 -30 -5 -38 -11 -39 -29
-2 -18 -22 -39 -43 -44 -3 0 -13 -4 -23 -9 -15 -6 -16 -10 -5 -17 8 -5 3 -6
-14 -2 -22 5 -28 3 -28 -10 0 -15 -11 -20 -38 -17 -7 1 -19 -5 -27 -13 -8 -8
-20 -17 -27 -20 -9 -4 -10 -8 -2 -11 9 -5 9 -12 0 -31 -8 -18 -16 -23 -31 -19
-11 4 -38 8 -60 10 -22 1 -51 7 -65 13 -14 5 -28 10 -32 11 -5 1 -22 4 -39 8
-34 7 -129 91 -129 115 0 9 -11 19 -25 22 -38 10 -91 49 -131 98 -46 57 -173
178 -185 178 -5 0 -38 13 -72 29 -34 15 -78 31 -99 35 -37 7 -48 20 -48 60 0
20 6 24 48 29 26 3 61 11 77 18 37 15 40 16 64 18 12 1 21 11 24 31 5 21 17
35 44 49 56 30 121 27 208 -10z m615 -629 c0 -5 -5 -10 -11 -10 -5 0 -7 5 -4
10 3 6 8 10 11 10 2 0 4 -4 4 -10z m-1223 -337 c6 -17 -57 -34 -91 -25 -37 10
-45 29 -14 35 40 8 101 2 105 -10z"/>
<path d="M2540 2910 c0 -5 5 -10 10 -10 6 0 10 5 10 10 0 6 -4 10 -10 10 -5 0
-10 -4 -10 -10z"/>
<path d="M541 2763 c-34 -7 -71 -33 -82 -57 -5 -12 -15 -29 -21 -39 -20 -28
14 -47 81 -47 31 -1 72 -7 91 -14 19 -8 51 -20 70 -27 19 -8 37 -17 40 -20 3
-3 11 -8 19 -10 21 -7 -54 -26 -150 -38 -73 -10 -99 -18 -167 -57 -72 -40 -83
-51 -111 -104 -37 -69 -64 -161 -54 -187 10 -28 23 -33 85 -33 82 0 100 10
120 66 38 108 120 166 238 168 49 1 77 -5 113 -22 43 -20 106 -76 107 -94 0
-5 9 -17 20 -28 21 -21 27 -74 9 -85 -14 -10 -20 -2 -26 37 -3 18 -8 35 -12
38 -3 3 -12 17 -19 31 -18 35 -62 59 -121 66 -57 7 -95 -11 -107 -49 -3 -13
-22 -40 -41 -62 -30 -33 -34 -43 -28 -73 5 -27 2 -37 -15 -51 l-22 -18 31 -23
c17 -13 31 -28 31 -32 0 -33 97 -99 145 -99 52 0 170 68 244 141 81 80 100
123 108 252 5 76 5 79 -26 117 -17 21 -31 46 -31 54 0 8 -8 17 -18 20 -35 11
-47 50 -33 108 6 29 8 54 4 55 -4 2 -43 26 -86 54 -75 49 -81 51 -175 60 -102
9 -170 9 -211 2z"/>
<path d="M206 2575 c-3 -9 0 -15 9 -15 8 0 15 7 15 15 0 8 -4 15 -9 15 -5 0
-11 -7 -15 -15z"/>
</g>
</svg>
